<svg width="35" height="35" viewBox="0 0 35 35" fill="none" xmlns="http://www.w3.org/2000/svg">
<path d="M13.125 5.83325C6.67915 5.83325 1.45831 11.0541 1.45831 17.4999C1.45831 23.9458 6.67915 29.1666 13.125 29.1666C19.5708 29.1666 24.7916 23.9458 24.7916 17.4999C24.7916 11.0541 19.5708 5.83325 13.125 5.83325ZM17.5 15.3124H14.5833V22.6041H11.6666V15.3124H8.74998V13.1249H17.5V15.3124ZM29.5312 5.46867L33.5416 7.29158L29.5312 9.1145L27.7083 13.1249L25.8854 9.1145L21.875 7.29158L25.8854 5.46867L27.7083 1.45825L29.5312 5.46867ZM29.5312 25.8853L33.5416 27.7083L29.5312 29.5312L27.7083 33.5416L25.8854 29.5312L21.875 27.7083L25.8854 25.8853L27.7083 21.8749L29.5312 25.8853Z" fill="#57C032"/>
</svg>
