<svg width="38" height="38" viewBox="0 0 38 38" fill="none" xmlns="http://www.w3.org/2000/svg">
<path d="M30.875 30.875H7.125V7.125H19V4.75H7.125C6.49511 4.75 5.89102 5.00022 5.44562 5.44562C5.00022 5.89102 4.75 6.49511 4.75 7.125V30.875C4.75 31.5049 5.00022 32.109 5.44562 32.5544C5.89102 32.9998 6.49511 33.25 7.125 33.25H30.875C31.5049 33.25 32.109 32.9998 32.5544 32.5544C32.9998 32.109 33.25 31.5049 33.25 30.875V19H30.875V30.875Z" fill="#868585"/>
<path d="M30.875 30.875H7.125V7.125H19V4.75H7.125C6.49511 4.75 5.89102 5.00022 5.44562 5.44562C5.00022 5.89102 4.75 6.49511 4.75 7.125V30.875C4.75 31.5049 5.00022 32.109 5.44562 32.5544C5.89102 32.9998 6.49511 33.25 7.125 33.25H30.875C31.5049 33.25 32.109 32.9998 32.5544 32.5544C32.9998 32.109 33.25 31.5049 33.25 30.875V19H30.875V30.875Z" fill="#868585"/>
<path d="M30.875 7.125V2.375H28.5V7.125H23.75V9.5H28.5V14.25H30.875V9.5H35.625V7.125H30.875Z" fill="#868585"/>
</svg>
