<svg width="38" height="38" viewBox="0 0 38 38" fill="none" xmlns="http://www.w3.org/2000/svg">
<path d="M14.25 5.54167V32.4583M4.75 14.8833C4.75 11.3367 4.75 9.56333 5.44033 8.208C6.04752 7.01636 7.01636 6.04752 8.208 5.44033C9.56333 4.75 11.3367 4.75 14.8833 4.75H23.1167C26.6633 4.75 28.4367 4.75 29.792 5.44033C30.9836 6.04752 31.9525 7.01636 32.5597 8.208C33.25 9.56333 33.25 11.3367 33.25 14.8833V23.1167C33.25 26.6633 33.25 28.4367 32.5597 29.792C31.9525 30.9836 30.9836 31.9525 29.792 32.5597C28.4367 33.25 26.6633 33.25 23.1167 33.25H14.8833C11.3367 33.25 9.56333 33.25 8.208 32.5597C7.01636 31.9525 6.04752 30.9836 5.44033 29.792C4.75 28.4367 4.75 26.6633 4.75 23.1167V14.8833Z" stroke="#868585" stroke-width="1.5" stroke-linecap="round" stroke-linejoin="round"/>
</svg>
