<svg width="20" height="20" viewBox="0 0 20 20" fill="none" xmlns="http://www.w3.org/2000/svg">
<g clip-path="url(#clip0_67_2)">
<path d="M3.264 8.57896C3.20042 8.64376 3.12456 8.69523 3.04085 8.73036C2.95715 8.7655 2.86728 8.7836 2.7765 8.7836C2.68572 8.7836 2.59585 8.7655 2.51215 8.73036C2.42844 8.69523 2.35258 8.64376 2.289 8.57896C2.15959 8.4473 2.08707 8.27007 2.08707 8.08546C2.08707 7.90085 2.15959 7.72362 2.289 7.59196L8.32 1.49996C9.68 0.443961 11.048 -0.0630391 12.41 0.00596089C14.126 0.0939609 15.462 0.747961 16.596 1.82096C17.752 2.91496 18.5 4.47596 18.5 6.36796C18.5 7.81996 18.078 9.09796 17.187 10.232L8.684 18.992C7.824 19.697 6.868 20.038 5.844 19.997C4.544 19.943 3.577 19.523 2.858 18.812C2.016 17.981 1.5 16.96 1.5 15.587C1.5 14.495 1.877 13.487 2.655 12.541L10.139 4.89996C10.739 4.25996 11.326 3.87996 11.926 3.78796C12.3265 3.72488 12.7363 3.7607 13.1197 3.8923C13.5032 4.02389 13.8487 4.24727 14.126 4.54296C14.658 5.10596 14.886 5.80796 14.806 6.60696C14.751 7.15196 14.528 7.65396 14.118 8.13496L7.238 15.183C7.17483 15.248 7.09935 15.2998 7.01596 15.3354C6.93256 15.3709 6.84292 15.3895 6.75226 15.3901C6.6616 15.3907 6.57173 15.3732 6.4879 15.3386C6.40408 15.3041 6.32796 15.2532 6.264 15.189C6.13378 15.0581 6.06019 14.8813 6.05906 14.6967C6.05794 14.5121 6.12938 14.3344 6.258 14.202L13.105 7.18996C13.305 6.95496 13.41 6.71796 13.435 6.46596C13.475 6.06596 13.379 5.77096 13.13 5.50796C13.0042 5.37327 12.8471 5.27174 12.6727 5.21242C12.4982 5.15311 12.3118 5.13783 12.13 5.16796C11.887 5.20496 11.547 5.42596 11.128 5.87196L3.675 13.479C3.138 14.134 2.878 14.829 2.878 15.588C2.878 16.542 3.223 17.225 3.82 17.814C4.295 18.284 4.94 18.564 5.9 18.604C6.58 18.631 7.21 18.406 7.758 17.962L16.155 9.31196C16.8 8.48496 17.122 7.51196 17.122 6.36896C17.122 4.88696 16.545 3.68496 15.654 2.84096C14.744 1.97896 13.704 1.47096 12.341 1.40096C11.333 1.34896 10.276 1.74096 9.224 2.54696L3.264 8.57896Z" fill="black"/>
</g>
<defs>
<clipPath id="clip0_67_2">
<rect width="20" height="20" fill="white"/>
</clipPath>
</defs>
</svg>
