<svg width="24" height="24" viewBox="0 0 24 24" fill="none" xmlns="http://www.w3.org/2000/svg">
<path d="M23 9.31992C23.0626 9.06298 23.027 8.79191 22.9 8.55992C22.5759 7.99757 22.144 7.50474 21.6289 7.10972C21.1139 6.7147 20.526 6.42527 19.8988 6.25803C19.2717 6.09079 18.6177 6.04904 17.9744 6.13517C17.331 6.22129 16.7111 6.43361 16.15 6.75992L14 7.99992L8.99999 5.64992C8.85784 5.57628 8.70008 5.53784 8.53999 5.53784C8.37989 5.53784 8.22214 5.57628 8.07999 5.64992L5.07999 7.37992C4.93173 7.46544 4.8079 7.58759 4.72035 7.73466C4.63281 7.88174 4.58448 8.04882 4.57999 8.21992C4.57515 8.39229 4.61496 8.56298 4.69556 8.71543C4.77616 8.86787 4.89481 8.99687 5.03999 9.08992L8.33999 11.1699L6.59999 12.1699L1.81999 12.7499C1.62783 12.7737 1.44671 12.8527 1.29861 12.9774C1.15051 13.1022 1.0418 13.2672 0.985679 13.4525C0.929557 13.6378 0.928438 13.8354 0.982457 14.0214C1.03648 14.2073 1.14331 14.3735 1.28999 14.4999L4.82999 17.5599C5.29604 18.0047 5.89289 18.2877 6.53223 18.3669C7.17158 18.4462 7.81945 18.3175 8.37999 17.9999L22.5 9.92992C22.6203 9.86746 22.7267 9.78117 22.8127 9.6763C22.8986 9.57144 22.9624 9.45019 23 9.31992ZM7.46999 16.3199C7.2779 16.4256 7.05639 16.4653 6.83957 16.4327C6.62274 16.4002 6.42261 16.2973 6.26999 16.1399L4.36999 14.5099L7.09999 14.1799C7.23414 14.1627 7.36342 14.1185 7.47999 14.0499L10.84 12.1199C10.9897 12.0335 11.1144 11.9098 11.2021 11.7608C11.2897 11.6119 11.3372 11.4427 11.34 11.2699C11.342 11.0983 11.2999 10.929 11.2176 10.7784C11.1352 10.6278 11.0155 10.5009 10.87 10.4099L7.56999 8.31992L8.66999 7.68992L13.67 10.0099C13.8121 10.0836 13.9699 10.122 14.13 10.122C14.2901 10.122 14.4478 10.0836 14.59 10.0099L17.15 8.52992C17.6746 8.23592 18.2755 8.10638 18.8746 8.15809C19.4737 8.2098 20.0435 8.44038 20.51 8.81992L7.46999 16.3199Z" fill="#FAC12F"/>
</svg>
