<svg width="40" height="40" viewBox="0 0 40 40" fill="none" xmlns="http://www.w3.org/2000/svg">
<circle cx="20" cy="20" r="20" fill="#57C032"/>
<g clip-path="url(#clip0_26_5)">
<path d="M29.66 17.61L20 8L10.34 17.61C10.226 17.6968 10.132 17.8071 10.0644 17.9333C9.99673 18.0596 9.957 18.1989 9.94788 18.3419C9.93875 18.4849 9.96046 18.6281 10.0115 18.762C10.0626 18.8958 10.1418 19.0172 10.2438 19.1177C10.3458 19.2183 10.4683 19.2958 10.6028 19.3449C10.7374 19.3941 10.8809 19.4137 11.0238 19.4025C11.1666 19.3914 11.3053 19.3497 11.4306 19.2802C11.5559 19.2108 11.6649 19.1152 11.75 19L19 11.81V30.94C19 31.2052 19.1054 31.4596 19.2929 31.6471C19.4804 31.8346 19.7348 31.94 20 31.94C20.2652 31.94 20.5196 31.8346 20.7071 31.6471C20.8946 31.4596 21 31.2052 21 30.94V11.81L28.25 19C28.4383 19.187 28.6932 19.2915 28.9585 19.2906C29.2239 19.2896 29.478 19.1833 29.665 18.995C29.852 18.8067 29.9565 18.5518 29.9556 18.2865C29.9546 18.0211 29.8483 17.767 29.66 17.58V17.61Z" fill="white"/>
</g>
<defs>
<clipPath id="clip0_26_5">
<rect width="36" height="36" fill="white" transform="translate(2 2)"/>
</clipPath>
</defs>
</svg>
