<svg version="1.2" xmlns="http://www.w3.org/2000/svg" viewBox="0 0 1092 1122" width="1092" height="1122">
	<title>vecteezy_letter-y-logo-design-brand-identity-logos-vector-modern_12676030-0-ai</title>
	<defs>
		<linearGradient id="g1" x2="1" gradientUnits="userSpaceOnUse" gradientTransform="matrix(368.089,611.329,-188.637,113.581,804.581,-135.799)">
			<stop offset="0" stop-color="#57c032"/>
			<stop offset="1" stop-color="#86d968"/>
		</linearGradient>
	</defs>
	<style>
		tspan { white-space:pre } 
		.s0 { fill: #57c032 } 
		.s1 { fill: url(#g1) } 
		.s2 { fill: #fbfbfb } 
	</style>
	<g id="_Artboards_">
	</g>
	<g id="Layer 2">
		<g id="&lt;Group&gt;">
			<g id="&lt;Group&gt;">
			</g>
		</g>
	</g>
	<g id="Layer 1">
		<g id="&lt;Group&gt;">
			<g id="&lt;Group&gt;">
				<g id="&lt;Group&gt;">
				</g>
			</g>
			<g id="&lt;Group&gt;">
				<g id="&lt;Group&gt;">
					<path id="&lt;Path&gt;" class="s0" d="m910.1 297.6l-342.8 588c-0.1 0.2-0.3 0.5-0.5 0.8-2.7 4-7.2 6.5-12.1 6.5h-236.1c-11.4 0-18.4-12.3-12.7-22.1l342.7-588c2.7-4.5 7.5-7.2 12.7-7.2h236.1c11.4 0 18.4 12.2 12.7 22z"/>
					<text id="" style="transform: matrix(1,0,0,1,681,357)" >
					</text>
					<path id="&lt;Path&gt;" class="s1" d="m714.9 632.5l-147.6 253.1c7.8-13.3 7.8-29.7 0-42.9l-4.4-7.7-118.1-202.5-208.1-357-76.5-131.2c-5.7-9.8 1.4-22.1 12.7-22.1h236.1c5.2 0 10 2.8 12.7 7.3l85.1 146 73 125.3z"/>
				</g>
			</g>
			<g id="&lt;Group&gt;">
				<g id="&lt;Group&gt;">
					<g id="&lt;Group&gt;">
						<path id="&lt;Compound Path&gt;" fill-rule="evenodd" class="s2" d="m1681.1 425h12.3c9.8 0 14.7 3.8 14.7 10.8 0 4.1-2.5 7.4-6.4 8.6v0.2c5.3 1.2 8.5 4.8 8.5 10q0 11.7-16.4 11.7h-12.7zm12.3 17.1q7 0 7-5.4c0-3.5-2.2-5.2-7.4-5.2h-3.8v10.6zm0 17.6c6.2 0 8.8-1.9 8.8-5.9 0-4-2.6-5.9-8.3-5.9h-4.7v11.8z"/>
						<path id="&lt;Compound Path&gt;" fill-rule="evenodd" class="s2" d="m1749.9 465.3l-0.5 1h-8.5l-11.1-16.4h-4.6v16.4h-8.3v-41.3h13.8c9.8 0 15 4.2 15 12.7 0 5.4-2.8 9.2-7.7 11zm-24.7-21.8h4.6c5.4 0 7.8-1.8 7.8-5.8 0-4.2-2.4-6-7.8-6h-4.6z"/>
						<path id="&lt;Compound Path&gt;" fill-rule="evenodd" class="s2" d="m1778.7 457.5h-16.8l-3.2 8.8h-9.4l16.7-41.3h8.8l16.5 41.3h-9.4zm-2.3-6.4l-3.6-9.7q-1.5-4.4-2.4-8.3h-0.2q-0.9 3.9-2.5 8.3l-3.5 9.7z"/>
						<path id="&lt;Compound Path&gt;" class="s2" d="m1795.5 425h7.5l14.4 17.5 0.9 1.2c2.7 3.3 4.7 6 6.2 8h0.1c-0.2-2.8-0.4-6.2-0.4-10.4v-16.3h8.1v41.8h-5.7l-16-19.1c-2.3-2.8-4.7-5.9-7.2-9.2h-0.2c0.3 2.8 0.4 6.3 0.4 10.4v17.4h-8.1z"/>
						<path id="&lt;Compound Path&gt;" fill-rule="evenodd" class="s2" d="m1841.3 425h12.8c15.1 0 23.6 7.5 23.6 20.5 0 13-8.9 20.8-23.7 20.8h-12.7zm12.1 33.9c10.7 0 15.8-4.2 15.8-13.5 0-8.9-4.9-13.1-15.7-13.1h-4v26.6z"/>
						<path id="&lt;Compound Path&gt;" class="s2" d="m1901.5 425h7.5l14.3 17.5 0.9 1.2c2.7 3.3 4.8 6 6.2 8h0.2c-0.3-2.8-0.5-6.2-0.5-10.4v-16.3h8.2v41.8h-5.8l-15.9-19.1c-2.3-2.8-4.8-5.9-7.3-9.2h-0.1c0.3 2.8 0.4 6.3 0.4 10.4v17.4h-8.1z"/>
						<path id="&lt;Compound Path&gt;" fill-rule="evenodd" class="s2" d="m1971.9 457.5h-16.9l-3.1 8.8h-9.4l16.7-41.3h8.8l16.5 41.3h-9.4zm-2.3-6.4l-3.6-9.7q-1.6-4.4-2.4-8.3h-0.3q-0.8 3.9-2.4 8.3l-3.5 9.7z"/>
						<path id="&lt;Compound Path&gt;" class="s2" d="m2011 449l11.8-24h10.2v41.3h-7.9l0.1-30.9h-0.1l-13.7 26.7h-1.1l-13.5-26.7h-0.2l0.2 30.9h-8.1v-41.3h10.3l11.9 24z"/>
						<path id="&lt;Compound Path&gt;" class="s2" d="m2067.1 425l0.8 7h-17.6v9.8h16v6.9h-16v10.5h17.6l-0.8 7.1h-25v-41.3z"/>
					</g>
					<g id="&lt;Group&gt;">
						<path id="&lt;Compound Path&gt;" class="s2" d="m1727.2 493.7l-6.5-10.9h1.6l3.1 5.4q0.5 1 2.2 3.7l0.3 0.5h0.1l0.9-1.5q1.1-1.8 1.6-2.6l3.1-5.5h1.6l-6.5 10.9v7.8h-1.5z"/>
						<path id="&lt;Compound Path&gt;" fill-rule="evenodd" class="s2" d="m1749.1 482.3c5.7-0.1 9.9 4.4 9.8 9.9 0.1 5.4-4.2 9.9-9.8 9.8-5.7 0.1-10-4.4-9.9-9.8-0.1-5.5 4.1-10 9.9-9.9zm0 1.4c-4.8-0.1-8.4 3.8-8.4 8.5 0 4.6 3.6 8.5 8.4 8.4 4.7 0.1 8.3-3.8 8.3-8.4 0.1-4.7-3.6-8.6-8.3-8.5z"/>
						<path id="&lt;Compound Path&gt;" class="s2" d="m1765.7 482.8h1.5v11.3c0 4.4 1.8 6.5 5.7 6.5 3.9 0 5.8-2.1 5.8-6.6v-11.2h1.4v11.4c0 5.1-2.4 7.8-7.2 7.8q-7.2 0-7.2-7.8z"/>
						<path id="&lt;Compound Path&gt;" fill-rule="evenodd" class="s2" d="m1800.9 501.2l-0.2 0.3h-1.4l-5.9-8.2h-3.8v8.2h-1.5v-18.6h4.9c4 0 6.2 1.7 6.2 5.2 0 2.6-1.5 4.4-4.2 5zm-8-9.3q4.8 0 4.8-3.9c0-2.6-1.6-3.9-5-3.9h-3v7.8z"/>
						<path id="&lt;Compound Path&gt;" class="s2" d="m1817 497.3h0.3c1.3 2.4 2.7 3.4 4.9 3.4 2.4 0 4.1-1.7 4.1-3.7 0-2-0.9-3.2-4.7-4.8q-2.8-1.2-3.9-2.5-1.1-1.2-1.1-3c0-2.5 2.1-4.4 5.3-4.4q3.6 0 5.2 3l-1 0.7h-0.3c-0.9-1.6-2.2-2.4-4-2.4-2.2 0-3.7 1.3-3.7 3.1 0 1.8 0.9 2.6 4.5 4.3 4.2 1.9 5.3 3.4 5.3 6 0 2.8-2.4 5-5.7 5-2.8 0-4.8-1.2-6.3-4z"/>
						<path id="&lt;Compound Path&gt;" class="s2" d="m1836.2 482.8v17.3h9.1l-0.2 1.4h-10.4v-18.7z"/>
						<path id="&lt;Compound Path&gt;" fill-rule="evenodd" class="s2" d="m1859.4 482.3c5.8-0.1 10 4.4 9.9 9.9 0 5.4-4.2 9.9-9.9 9.8-5.7 0.1-10-4.4-9.9-9.8-0.1-5.5 4.1-10 9.9-9.9zm0 1.4c-4.8-0.1-8.4 3.8-8.3 8.5-0.1 4.6 3.5 8.5 8.3 8.4 4.8 0.1 8.4-3.8 8.3-8.4 0.1-4.7-3.5-8.6-8.3-8.5z"/>
						<path id="&lt;Compound Path&gt;" class="s2" d="m1884.7 482.3c3.9 0 6.7 1.7 8.6 5l-1 0.7-0.3-0.1c-1.7-2.8-4-4.2-7.3-4.2-4.6-0.1-8.2 3.8-8.1 8.5-0.1 4.7 3.5 8.5 8 8.4 3.6 0 6.7-2.1 7.5-5.7v-1.6h-6.1v-1.2h7.4v9.4h-1.4v-1.3q0.1-1.2 0.2-2.2l-0.1-0.1c-1.7 2.7-4.3 4.1-7.5 4.1-5.4 0.1-9.7-4.2-9.6-9.8-0.1-5.6 4.2-10 9.7-9.9z"/>
						<path id="&lt;Compound Path&gt;" fill-rule="evenodd" class="s2" d="m1911.8 496.3h-9.5l-2.2 5.2h-1.6l8-18.7h1.1l8 18.7h-1.6zm-0.6-1.3l-2.5-6.2-1.3-3.1-0.4-0.9h-0.1l-1.6 4-2.6 6.2z"/>
						<path id="&lt;Compound Path&gt;" class="s2" d="m1921 482.8h1.1l9.2 11.2 3.5 4.3h0.1v-4.8-10.7h1.5v19.1h-0.3l-10.1-12.2-3.5-4.2h-0.1v4.8 11.2h-1.4z"/>
						<path id="&lt;Compound Path&gt;" class="s2" d="m1955.2 482.8h1.5v8.5h11.3v-8.5h1.5v18.7h-1.5v-8.8h-11.3v8.8h-1.5z"/>
						<path id="&lt;Compound Path&gt;" class="s2" d="m1988.1 482.8l0.1 1.4h-9v7h8.4v1.4h-8.4v7.5h9l-0.1 1.4h-10.4v-18.7z"/>
						<path id="&lt;Compound Path&gt;" fill-rule="evenodd" class="s2" d="m2008.3 501.2l-0.1 0.3h-1.5l-5.9-8.2h-3.8v8.2h-1.5v-18.6h4.9c4.1 0 6.2 1.7 6.2 5.2 0 2.6-1.5 4.4-4.2 5zm-8-9.3q4.9 0 4.9-3.9c0-2.6-1.7-3.9-5.1-3.9h-3v7.8z"/>
						<path id="&lt;Compound Path&gt;" class="s2" d="m2024.4 482.8l0.2 1.4h-9.1v7h8.4v1.4h-8.4v7.5h9.1l-0.2 1.4h-10.4v-18.7z"/>
					</g>
				</g>
				<g id="&lt;Group&gt;">
				</g>
			</g>
		</g>
	</g>
</svg>